#!OML:ASF F:\VICON\USERDATA\INSTALL\rory3\rory3.ASF
:FULLY-SPECIFIED
:DEGREES
514
root 1.90281 18.5454 3.331 -57.2481 -75.1009 56.415
lowerback 8.23959 0.971857 -0.668999
upperback -1.5935 1.49494 6.11849
thorax -6.50911 0.847935 6.66891
lowerneck -27.9055 5.47053 0.628433
upperneck -3.31825 5.82984 5.57542
head 2.99927 2.90416 2.2435
rclavicle 3.08116e-015 3.81667e-014
rhumerus 41.4051 7.37743 -35.8599
rradius 80.5357
rwrist 4.0449
rhand -29.7406 5.80348
rfingers 7.12502
rthumb -3.06696 -24.1542
lclavicle 3.08116e-015 3.81667e-014
lhumerus 75.793 46.6638 28.3849
lradius 21.1239
lwrist -32.8326
lhand -18.0395 38.8796
lfingers 7.12502
lthumb 8.2322 68.6992
rfemur -11.0021 -7.40981 1.50499
rtibia 48.8928
rfoot 2.13777 -5.91805
rtoes -7.57139
lfemur -11.0721 -4.73582 -31.431
ltibia 33.4565
lfoot 0.162033 -3.14999
ltoes -29.4741
515
root 1.89987 18.5927 3.32159 -57.3289 -74.9387 56.3086
lowerback 8.23911 0.701444 -0.436549
upperback -1.43705 1.14553 6.07822
thorax -6.29221 0.658243 6.53557
lowerneck -28.0324 5.8756 1.11196
upperneck -3.00668 6.16323 5.75151
head 3.1115 3.07975 2.26718
rclavicle 2.22639e-014 -9.54166e-015
rhumerus 40.942 8.14177 -36.6455
rradius 80.9015
rwrist 4.451
rhand -29.8532 5.88216
rfingers 7.12502
rthumb -3.17568 -24.0739
lclavicle 2.22639e-014 -9.54166e-015
lhumerus 72.0258 46.592 23.7267
lradius 21.4299
lwrist -30.4695
lhand -17.8052 38.5371
lfingers 7.12502
lthumb 8.45836 68.3477
rfemur -10.544 -7.06568 1.39533
rtibia 48.3211
rfoot 2.54684 -6.50285
rtoes -6.70516
lfemur -11.2127 -4.84714 -31.368
ltibia 33.373
lfoot 0.0108426 -2.64849
ltoes -28.8872
516
root 1.89326 18.6359 3.31383 -57.4582 -74.7034 56.3288
lowerback 8.07899 0.461848 -0.233149
upperback -1.25004 0.825759 5.9389
thorax -5.9572 0.481918 6.30341
lowerneck -28.2332 6.23923 1.76332
upperneck -2.77542 6.38652 5.82616
head 3.21858 3.19166 2.22434
rclavicle 1.0635e-014 3.81667e-014
rhumerus 40.3439 8.76352 -37.609
rradius 81.2358
rwrist 4.83227
rhand -29.8716 6.26803
rfingers 7.12502
rthumb -3.19342 -23.6878
lclavicle 1.0635e-014 3.81667e-014
lhumerus 69.0931 46.4204 19.9787
lradius 21.6715
lwrist -28.9386
lhand -17.5775 38.3358
lfingers 7.12502
lthumb 8.67804 68.1374
rfemur -10.1767 -6.86107 1.19177
rtibia 47.7528
rfoot 3.05271 -7.12346
rtoes -5.0318
lfemur -11.4308 -4.91341 -31.4194
ltibia 33.2134
lfoot -0.072923 -2.23536
ltoes -28.3994
517
root 1.88295 18.6771 3.308 -58.3604 -74.379 57.1053
lowerback 7.91287 0.298562 -0.183356
upperback -1.04395 0.5903 5.67955
thorax -5.61247 0.353007 6.01739
lowerneck -28.5105 6.6025 2.51053
upperneck -2.44065 6.56537 5.90861
head 3.37272 3.28741 2.17136
rclavicle -2.33572e-015 4.45278e-014
rhumerus 39.5785 9.29869 -38.6374
rradius 81.6291
rwrist 5.24659
rhand -29.7575 6.39952
rfingers 7.12502
rthumb -3.0833 -23.5579
lclavicle -2.33572e-015 4.45278e-014
lhumerus 66.6399 46.0986 16.6593
lradius 21.8657
lwrist -27.7366
lhand -17.3842 38.742
lfingers 7.12502
lthumb 8.86464 68.5358
rfemur -9.83998 -6.43951 0.806869
rtibia 47.2238
rfoot 3.44353 -8.00821
rtoes -3.34317
lfemur -11.5726 -4.97694 -31.7004
ltibia 32.9597
lfoot 0.000427822 -1.50963
ltoes -27.7917
518
root 1.87148 18.722 3.30457 -59.2038 -74.1378 57.8196
lowerback 7.76339 0.143978 -0.031909
upperback -0.838376 0.376705 5.41965
thorax -5.28308 0.232588 5.67014
lowerneck -28.9097 6.98711 3.32575
upperneck -1.94996 6.73069 5.9433
head 3.56895 3.38138 2.11003
rclavicle 1.16786e-014 -8.26944e-014
rhumerus 38.7938 9.81178 -39.7874
rradius 81.9941
rwrist 5.7556
rhand -29.5883 6.44897
rfingers 7.12502
rthumb -2.91985 -23.5108
lclavicle 1.16786e-014 -8.26944e-014
lhumerus 64.0389 45.6389 13.1274
lradius 22.0979
lwrist -26.6076
lhand -17.355 39.2371
lfingers 7.12502
lthumb 8.89283 69.0297
rfemur -9.5158 -5.8134 0.580691
rtibia 46.7295
rfoot 3.63397 -9.08315
rtoes -1.90943
lfemur -11.7015 -4.97882 -31.8926
ltibia 32.6336
lfoot 0.133337 -0.745976
ltoes -26.6281
519
root 1.8584 18.765 3.30355 -59.9953 -73.8991 58.5807
lowerback 7.5603 0.0454467 0.178191
upperback -0.703411 0.243559 5.05204
thorax -5.00793 0.153207 5.16603
lowerneck -29.1188 7.39953 4.41808
upperneck -1.6414 6.85905 5.86529
head 3.72427 3.44251 1.95062
rclavicle -1.6027e-014 -3.49861e-014
rhumerus 37.7458 10.2218 -41.129
rradius 82.3321
rwrist 6.20023
rhand -29.679 6.59556
rfingers 7.12502
rthumb -3.00742 -23.363
lclavicle -1.6027e-014 -3.49861e-014
lhumerus 62.1943 45.134 10.3425
lradius 22.2555
lwrist -26.3303
lhand -17.6202 39.4396
lfingers 7.12502
lthumb 8.63683 69.243
rfemur -9.31338 -5.27938 0.353386
rtibia 46.2691
rfoot 3.72265 -10.1205
rtoes 0.0657442
lfemur -11.9568 -4.71282 -32.0849
ltibia 32.2424
lfoot 0.356861 -0.599792
ltoes -26.915
520
root 1.84551 18.806 3.303 -61.2236 -73.6264 59.7873
lowerback 7.40205 -0.0696908 0.301872
upperback -0.568765 0.0818107 4.66581
thorax -4.76014 0.0637981 4.69792
lowerneck -29.2943 7.90382 5.56212
upperneck -1.33334 7.08324 5.74863
head 3.87741 3.54747 1.78274
rclavicle -1.94933e-014 -2.8625e-014
rhumerus 36.7944 10.7285 -42.4809
rradius 82.6439
rwrist 6.60467
rhand -29.7014 6.56623
rfingers 7.12502
rthumb -3.02909 -23.392
lclavicle -1.94933e-014 -2.8625e-014
lhumerus 60.0251 44.6237 7.23149
lradius 22.4288
lwrist -25.8973
lhand -18.2047 39.3065
lfingers 7.12502
lthumb 8.07282 69.1323
rfemur -9.184 -4.79413 0.00802045
rtibia 45.8323
rfoot 3.78377 -11.1874
rtoes 2.07474
lfemur -12.2133 -4.15472 -32.3825
ltibia 31.7972
lfoot 0.843207 -0.599348
ltoes -26.4248
521
root 1.83264 18.8472 3.30446 -62.195 -73.4031 60.7351
lowerback 7.20283 -0.29625 0.503266
upperback -0.40068 -0.223588 4.36171
thorax -4.44814 -0.098918 4.28874
lowerneck -29.5911 8.44226 6.4726
upperneck -0.868062 7.38603 5.79473
head 4.08652 3.71096 1.72182
rclavicle 2.84635e-014 4.45278e-014
rhumerus 36.154 11.4257 -43.8778
rradius 82.9074
rwrist 6.95452
rhand -29.5474 6.44765
rfingers 7.12502
rthumb -2.88039 -23.5126
lclavicle 2.84635e-014 4.45278e-014
lhumerus 57.5904 44.2077 4.03311
lradius 22.6056
lwrist -25.3725
lhand -18.9122 39.4468
lfingers 7.12502
lthumb 7.38985 69.2978
rfemur -9.05426 -4.13594 -0.17884
rtibia 45.4385
rfoot 3.61694 -12.4067
rtoes 3.96811
lfemur -12.4225 -3.88004 -32.5656
ltibia 31.2637
lfoot 1.55659 -0.311362
ltoes -24.3784
522
root 1.81787 18.8864 3.30582 -63.225 -73.1533 61.7724
lowerback 6.95841 -0.491426 0.778465
upperback -0.239001 -0.484499 3.91906
thorax -4.12798 -0.239802 3.68652
lowerneck -29.72 8.99012 7.62523
upperneck -0.546351 7.64754 5.69174
head 4.24271 3.83756 1.56672
rclavicle 1.92821e-014 -2.22639e-014
rhumerus 35.3487 12.0417 -45.6087
rradius 83.1027
rwrist 7.38265
rhand -29.5429 6.64129
rfingers 7.12502
rthumb -2.87601 -23.3191
lclavicle 1.92821e-014 -2.22639e-014
lhumerus 56.5084 44.1147 2.27859
lradius 22.6426
lwrist -25.4604
lhand -19.2171 39.6137
lfingers 7.12502
lthumb 7.09564 69.4747
rfemur -8.9751 -3.50817 -0.411233
rtibia 45.0985
rfoot 3.54869 -13.4488
rtoes 4.82869
lfemur -12.6267 -3.83721 -32.776
ltibia 30.607
lfoot 2.41399 -0.0975304
ltoes -23.2753
523
root 1.80208 18.9179 3.30941 -64.4896 -72.7931 63.0351
lowerback 6.69698 -0.660906 1.10933
upperback -0.0279002 -0.712873 3.29592
thorax -3.75883 -0.364237 2.86167
lowerneck -29.9452 9.57876 9.00181
upperneck -0.289762 7.86888 5.47114
head 4.40247 3.93219 1.34211
rclavicle 1.2921e-015 -7.63333e-014
rhumerus 34.4361 12.4869 -47.4658
rradius 83.3067
rwrist 7.72469
rhand -29.6021 6.7262
rfingers 7.12502
rthumb -2.9332 -23.2334
lclavicle 1.2921e-015 -7.63333e-014
lhumerus 56.0709 44.2358 1.11616
lradius 22.6541
lwrist -25.6098
lhand -19.4662 39.8052
lfingers 7.12502
lthumb 6.85517 69.6742
rfemur -8.88598 -2.97206 -0.836881
rtibia 44.7871
rfoot 3.35565 -14.4296
rtoes 6.2105
lfemur -12.8035 -3.66732 -33.1426
ltibia 29.869
lfoot 3.33559 -0.308324
ltoes -23.9357
524
root 1.78495 18.9442 3.31697 -65.6977 -72.3804 64.2503
lowerback 6.43455 -0.865264 1.50337
upperback 0.176144 -0.984729 2.60492
thorax -3.40673 -0.508557 1.93865
lowerneck -30.234 10.1917 10.3048
upperneck 0.0420261 8.09593 5.46106
head 4.58797 4.04925 1.20643
rclavicle 7.7526e-015 8.5875e-014
rhumerus 33.5266 12.9585 -49.35
rradius 83.545
rwrist 7.95625
rhand -29.6715 6.7953
rfingers 7.12502
rthumb -3.0002 -23.1633
lclavicle 7.7526e-015 8.5875e-014
lhumerus 55.0546 44.2045 -0.854016
lradius 22.7797
lwrist -25.0449
lhand -19.4478 40.1431
lfingers 7.12502
lthumb 6.87292 70.0116
rfemur -8.78278 -2.39542 -1.30256
rtibia 44.4847
rfoot 3.15125 -15.3039
rtoes 7.82553
lfemur -12.987 -3.50639 -33.5495
ltibia 29.0564
lfoot 4.21333 -0.759867
ltoes -25.3816
525
root 1.76579 18.9706 3.32253 -66.5378 -72.1795 65.1373
lowerback 6.10657 -1.09154 2.04275
upperback 0.36214 -1.27699 2.02023
thorax -3.04888 -0.662294 1.04726
lowerneck -30.3536 10.8081 11.531
upperneck 0.266573 8.36792 5.50978
head 4.71528 4.18582 1.10131
rclavicle -9.74045e-015 5.08889e-014
rhumerus 32.6267 13.4319 -51.2998
rradius 83.8053
rwrist 8.03458
rhand -29.6483 6.86393
rfingers 7.12502
rthumb -2.97784 -23.095
lclavicle -9.74045e-015 5.08889e-014
lhumerus 54.6801 44.4984 -1.88289
lradius 22.8479
lwrist -25.185
lhand -18.8483 40.409
lfingers 7.12502
lthumb 7.45161 70.2578
rfemur -8.72665 -1.76597 -1.47139
rtibia 44.206
rfoot 2.76075 -16.0949
rtoes 9.22563
lfemur -13.1965 -3.56872 -33.6555
ltibia 28.1713
lfoot 5.21038 -1.03712
ltoes -26.0603
526
root 1.74724 18.9988 3.32609 -67.2066 -72.1069 65.8157
lowerback 5.87397 -1.2457 2.4828
upperback 0.521327 -1.47572 1.55737
thorax -2.777 -0.765618 0.332445
lowerneck -30.2754 11.4344 13.0219
upperneck 0.402328 8.6327 5.23513
head 4.81119 4.29044 0.846703
rclavicle 4.37326e-015 6.36111e-014
rhumerus 31.613 13.8403 -53.1679
rradius 83.9516
rwrist 8.1832
rhand -29.9645 6.75288
rfingers 7.12502
rthumb -3.28319 -23.2016
lclavicle 4.37326e-015 6.36111e-014
lhumerus 54.6193 44.8223 -2.48434
lradius 22.7994
lwrist -25.3463
lhand -18.5337 40.3879
lfingers 7.12502
lthumb 7.7552 70.2257
rfemur -8.64112 -1.18996 -1.49479
rtibia 43.9712
rfoot 2.33505 -16.8499
rtoes 10.3774
lfemur -13.3471 -3.85694 -33.5394
ltibia 27.1795
lfoot 6.46422 -1.11339
ltoes -25.3139
527
root 1.73791 19.014 3.3275 -69.0888 -71.6482 67.5832
lowerback 6.01142 -1.3418 2.29359
upperback 0.662272 -1.62601 1.02731
thorax -2.72056 -0.838101 -0.0937795
lowerneck -30.099 12.054 14.412
upperneck 0.515963 8.93391 5.06324
head 4.88466 4.41803 0.644252
rclavicle 7.55382e-015 -2.8625e-014
rhumerus 30.6409 14.3529 -54.8988
rradius 84.1039
rwrist 8.26618
rhand -30.3412 6.73078
rfingers 7.12502
rthumb -3.64695 -23.2178
lclavicle 7.55382e-015 -2.8625e-014
lhumerus 53.2625 44.6183 -4.72272
lradius 22.8301
lwrist -24.2483
lhand -18.4436 40.5491
lfingers 7.12502
lthumb 7.84216 70.3836
rfemur -8.51999 -0.535864 -2.09252
rtibia 43.7868
rfoot 2.17009 -17.2571
rtoes 11.1911
lfemur -13.3525 -4.22396 -33.8816
ltibia 26.1374
lfoot 7.81108 -0.938681
ltoes -23.6124
